<svg xmlns="http://www.w3.org/2000/svg" viewBox="0 0 25 25"><title>Artboard-21</title><g id="Stars"><path d="M18.5,5A5.4969,5.4969,0,0,1,13,10.5,5.4892,5.4892,0,0,1,18.5,16,5.4969,5.4969,0,0,1,24,10.5,5.4969,5.4969,0,0,1,18.5,5Z" style="fill:rgb(180, 174, 174)"/><path d="M6.5,12A5.4969,5.4969,0,0,1,12,6.5,5.4969,5.4969,0,0,1,6.5,1,5.4969,5.4969,0,0,1,1,6.5a5.4886,5.4886,0,0,1,3.1.95A5.4992,5.4992,0,0,1,6.5,12Z" style="fill:#232326"/><path d="M10.5,13A5.4969,5.4969,0,0,1,5,18.5,5.4892,5.4892,0,0,1,10.5,24,5.4969,5.4969,0,0,1,16,18.5,5.4969,5.4969,0,0,1,10.5,13Z" style="fill:rgb(180, 174, 174)"/></g></svg>