<svg fill="rgb(180, 174, 174)" xmlns="http://www.w3.org/2000/svg" viewBox="0 0 32 32"><title>13-User-Process</title><g id="_13-User-Process" data-name="13-User-Process"><path d="M2,29c0-.78,1.92-1.7,3.24-2l.11,0,8-3A1,1,0,0,0,14,23V20.31a1,1,0,0,0-.57-.9A6,6,0,0,1,10,14a1,1,0,0,0-1-1V11a1,1,0,0,0,1-1V8A6,6,0,0,1,22,8v2a1,1,0,0,0,1,1v2h2V11a2,2,0,0,0-1-1.73V8A8,8,0,0,0,8,8V9.27A2,2,0,0,0,7,11v2a2,2,0,0,0,1,1.75,8.07,8.07,0,0,0,4,6.16v1.39L4.7,25c-.91.23-4.7,1.37-4.7,4v2a1,1,0,0,0,1,1H15V30H2Z"/><path d="M24,16a8,8,0,1,0,8,8A8,8,0,0,0,24,16Zm0,14a6,6,0,1,1,6-6A6,6,0,0,1,24,30Z"/><path d="M26.7,22.71l1-1-1.41-1.41-1,1L25,21.18V20H23v1.18l-.29.12-1-1-1.41,1.41,1,1a3,3,0,0,0-.12.29H20v2h1.18a3,3,0,0,0,.12.29l-1,1,1.41,1.41,1-1,.29.12V28h2V26.82l.29-.12,1,1,1.41-1.41-1-1a3,3,0,0,0,.12-.29H28V23H26.82A3,3,0,0,0,26.7,22.71ZM24,25a1,1,0,1,1,1-1A1,1,0,0,1,24,25Z"/></g></svg>