<svg xmlns="http://www.w3.org/2000/svg" viewBox="0 0 48 48"><defs><style>.cls-1{fill:rgb(180, 174, 174);}</style></defs><title>Asset 51ldpi</title><g id="Layer_2" data-name="Layer 2"><g id="layer_1-2" data-name="layer 1"><path class="cls-1" d="M10,34c-2.76,0-5-2.69-5-6a4.68,4.68,0,0,1,5-5,4.68,4.68,0,0,1,5,5C15,31.31,12.76,34,10,34Zm0-9a2.72,2.72,0,0,0-3,3c0,2.21,1.35,4,3,4s3-1.79,3-4A2.72,2.72,0,0,0,10,25Z"/><path class="cls-1" d="M2,48H0V37.58a5,5,0,0,1,4.45-5L9.89,32l.22,2-5.44.61a3,3,0,0,0-2.67,3Z"/><rect class="cls-1" x="4" y="38" width="2" height="10"/><rect class="cls-1" x="14" y="38" width="2" height="10"/><path class="cls-1" d="M24,34c-2.76,0-5-2.69-5-6a4.68,4.68,0,0,1,5-5,4.68,4.68,0,0,1,5,5C29,31.31,26.76,34,24,34Zm0-9a2.72,2.72,0,0,0-3,3c0,2.21,1.35,4,3,4s3-1.79,3-4A2.72,2.72,0,0,0,24,25Z"/><path class="cls-1" d="M16,48H14V37.58a5,5,0,0,1,4.45-5l5.44-.6.22,2-5.44.61a3,3,0,0,0-2.67,3Z"/><rect class="cls-1" x="18" y="38" width="2" height="10"/><path class="cls-1" d="M34,48H32V37.58a3,3,0,0,0-2.67-3L23.89,34l.22-2,5.44.6a5,5,0,0,1,4.45,5Z"/><rect class="cls-1" x="28" y="38" width="2" height="10"/><path class="cls-1" d="M38,34c-2.76,0-5-2.69-5-6a4.68,4.68,0,0,1,5-5,4.68,4.68,0,0,1,5,5C43,31.31,40.76,34,38,34Zm0-9a2.72,2.72,0,0,0-3,3c0,2.21,1.35,4,3,4s3-1.79,3-4A2.72,2.72,0,0,0,38,25Z"/><rect class="cls-1" x="32" y="38" width="2" height="10"/><path class="cls-1" d="M48,48H46V37.58a3,3,0,0,0-2.67-3L37.89,34l.22-2,5.44.6a5,5,0,0,1,4.45,5Z"/><rect class="cls-1" x="42" y="38" width="2" height="10"/><path class="cls-1" d="M17,11c-2.76,0-5-2.69-5-6a4.68,4.68,0,0,1,5-5,4.68,4.68,0,0,1,5,5C22,8.31,19.76,11,17,11Zm0-9a2.72,2.72,0,0,0-3,3c0,2.21,1.35,4,3,4s3-1.79,3-4A2.72,2.72,0,0,0,17,2Z"/><path class="cls-1" d="M9,22H7V14.58a5,5,0,0,1,4.45-5L16.89,9l.22,2-5.44.61a3,3,0,0,0-2.67,3Z"/><rect class="cls-1" x="11" y="15" width="2" height="7"/><path class="cls-1" d="M27,22H25V14.58a3,3,0,0,0-2.67-3L16.89,11l.22-2,5.44.6a5,5,0,0,1,4.45,5Z"/><rect class="cls-1" x="21" y="15" width="2" height="7"/><path class="cls-1" d="M31,11c-2.76,0-5-2.69-5-6a4.68,4.68,0,0,1,5-5,4.68,4.68,0,0,1,5,5C36,8.31,33.76,11,31,11Zm0-9a2.72,2.72,0,0,0-3,3c0,2.21,1.35,4,3,4s3-1.79,3-4A2.72,2.72,0,0,0,31,2Z"/><path class="cls-1" d="M41,22H39V14.58a3,3,0,0,0-2.67-3L30.89,11l.22-2,5.44.6a5,5,0,0,1,4.45,5Z"/><rect class="cls-1" x="35" y="15" width="2" height="7"/></g></g></svg>